<svg width="104" height="40" viewBox="0 0 104 40" fill="none" xmlns="http://www.w3.org/2000/svg">
<rect width="104" height="40" rx="7" fill="#EFEFEF"/>
<path d="M17.1223 10.4321C16.3187 9.34552 15.6268 8.24194 15.4928 8.01273C15.4779 7.99576 15.4556 7.99576 15.4407 8.01273C15.2994 8.24194 14.6074 9.34552 13.8038 10.4321C6.91399 20.4577 14.8902 27.2235 14.8902 27.2235L14.9571 27.2744C15.0166 28.3186 15.1655 29.8212 15.1655 29.8212H15.4631H15.7607C15.7607 29.8212 15.9095 28.3271 15.969 27.2744L16.036 27.215C16.036 27.2235 24.0121 20.4577 17.1223 10.4321ZM15.4631 27.0707C15.4631 27.0707 15.1059 26.7226 15.0092 26.5444V26.5274L15.4407 15.6105C15.4407 15.5765 15.4854 15.5765 15.4854 15.6105L15.9095 26.5274V26.5444C15.8128 26.7226 15.4631 27.0707 15.4631 27.0707Z" fill="#00684A"/>
<path d="M30.3812 24.8466L27.0553 15.585L27.0478 15.5595H24.466V16.1792H24.8827C25.0092 16.1792 25.1282 16.2386 25.2175 16.3405C25.3068 16.4424 25.3514 16.5782 25.3514 16.7225L25.277 26.0435C25.277 26.3321 25.0687 26.5698 24.8157 26.5783L24.3916 26.5953V27.2065H26.9065V26.5953L26.6461 26.5868C26.3931 26.5783 26.1848 26.3406 26.1848 26.052V17.2658L29.8082 27.2065C29.8603 27.3508 29.9794 27.4442 30.1133 27.4442C30.2472 27.4442 30.3663 27.3508 30.4184 27.2065L33.96 17.4865L34.0121 26.0435C34.0121 26.3406 33.8038 26.5783 33.5434 26.5868H33.2755V27.198H36.2219V26.5953H35.8201C35.5672 26.5953 35.3588 26.3491 35.3514 26.0605L35.3291 16.7395C35.3291 16.4424 35.5374 16.2047 35.7904 16.1962L36.2219 16.1877V15.5595H33.707L30.3812 24.8466Z" fill="#00684A"/>
<path d="M53.5507 26.4255C53.4688 26.3321 53.4242 26.2048 53.4242 26.052V21.4764C53.4242 20.602 53.201 19.9229 52.7545 19.439C52.3156 18.9551 51.698 18.7005 50.9391 18.7005C49.8677 18.7005 49.0269 19.1928 48.4391 20.1691C48.4316 20.1861 48.4093 20.1945 48.387 20.1945C48.3647 20.1945 48.3498 20.1776 48.3498 20.1521L48.0745 18.9297H47.6058L46.4153 19.7107V20.1351H46.7203C46.8617 20.1351 46.9808 20.1776 47.0626 20.2625C47.1444 20.3473 47.1891 20.4747 47.1891 20.653V26.0435C47.1891 26.1963 47.1444 26.3237 47.0626 26.417C46.9808 26.5104 46.8691 26.5613 46.7352 26.5613H46.4376V27.1811H49.1682V26.5613H48.8706C48.7367 26.5613 48.6251 26.5104 48.5433 26.417C48.4614 26.3237 48.4168 26.1963 48.4168 26.0435V22.4696C48.4168 22.0197 48.506 21.5613 48.6697 21.1199C48.8409 20.6869 49.0938 20.3134 49.4287 20.0333C49.7635 19.7531 50.1653 19.6173 50.634 19.6173C51.1549 19.6173 51.5492 19.804 51.8022 20.1776C52.0477 20.5511 52.1742 21.0435 52.1742 21.6207V26.0265C52.1742 26.1793 52.1295 26.3067 52.0477 26.4001C51.9659 26.4934 51.8543 26.5444 51.7203 26.5444H51.4227V27.1641H54.1534V26.5444H53.8557C53.7441 26.5783 53.64 26.5274 53.5507 26.4255Z" fill="#00684A"/>
<path d="M78.5208 16.2556C77.7693 15.7972 76.9211 15.5595 76.0133 15.5595H72.4568V16.1792H72.8065C72.9404 16.1792 73.0595 16.2386 73.1785 16.3745C73.2901 16.5018 73.3496 16.6461 73.3496 16.7989V25.9501C73.3496 26.1029 73.2901 26.2472 73.1785 26.3746C73.0669 26.5019 72.9404 26.5698 72.8065 26.5698H72.4568V27.1895H76.0133C76.9211 27.1895 77.7693 26.9518 78.5282 26.4934C79.2871 26.035 79.8972 25.3559 80.3437 24.49C80.7901 23.6241 81.0207 22.58 81.0207 21.383C81.0207 20.1945 80.7901 19.1589 80.3437 18.276C79.8898 17.3931 79.2797 16.7225 78.5208 16.2556ZM79.5847 21.366C79.5847 22.4526 79.4136 23.3695 79.0788 24.108C78.744 24.8466 78.2975 25.3983 77.7544 25.7549C77.2038 26.1114 76.6011 26.2897 75.9464 26.2897H75.2246C75.0907 26.2897 74.9717 26.2303 74.8526 26.0944C74.741 25.9671 74.6815 25.8228 74.6815 25.67V17.0451C74.6815 16.8923 74.7336 16.7565 74.8526 16.6206C74.9642 16.4933 75.0907 16.4254 75.2246 16.4254H75.9464C76.6011 16.4254 77.2038 16.6037 77.7544 16.9602C78.305 17.3167 78.744 17.8685 79.0788 18.6071C79.4136 19.3626 79.5847 20.2879 79.5847 21.366Z" fill="#00684A"/>
<path d="M89.4212 21.9858C89.0938 21.5528 88.4613 21.1878 87.7099 20.9925C88.7366 20.4068 89.2724 19.5834 89.2724 18.5222C89.2724 17.945 89.1384 17.4271 88.8706 16.9857C88.6027 16.5443 88.2233 16.1877 87.7396 15.9415C87.256 15.6954 86.6831 15.568 86.0432 15.568H82.0179V16.1877H82.3379C82.4718 16.1877 82.5908 16.2471 82.7099 16.383C82.8215 16.5103 82.881 16.6546 82.881 16.8074V25.9586C82.881 26.1114 82.8215 26.2558 82.7099 26.3831C82.5983 26.5104 82.4718 26.5783 82.3379 26.5783H81.9807V27.198H86.3483C87.0105 27.198 87.6355 27.0707 88.1935 26.816C88.7515 26.5614 89.2054 26.1878 89.5253 25.6955C89.8527 25.2031 90.0164 24.6004 90.0164 23.9043C90.009 23.1403 89.8155 22.5036 89.4212 21.9858ZM84.4063 26.1114C84.2947 25.9841 84.2352 25.8398 84.2352 25.687V21.5783H86.3111C87.0402 21.5783 87.6057 21.7905 87.9926 22.215C88.3795 22.6394 88.5729 23.1912 88.5729 23.8703C88.5729 24.2778 88.4837 24.6768 88.32 25.0418C88.1488 25.4153 87.8959 25.7125 87.5536 25.9417C87.2188 26.1709 86.8021 26.2897 86.3111 26.2897H84.7783C84.6444 26.2982 84.5253 26.2388 84.4063 26.1114ZM84.2426 20.7039V17.0536C84.2426 16.9008 84.2947 16.765 84.4137 16.6292C84.5253 16.5018 84.6518 16.4339 84.7858 16.4339H85.7679C86.4747 16.4339 87.003 16.6376 87.3304 17.0281C87.6578 17.4271 87.8215 17.9365 87.8215 18.5647C87.8215 19.2098 87.6652 19.7277 87.3602 20.1182C87.0551 20.5002 86.5938 20.6954 85.9762 20.6954H84.2426V20.7039Z" fill="#00684A"/>
<path d="M43.1416 19.2438C42.5686 18.8872 41.9362 18.7005 41.2442 18.7005C40.5523 18.7005 39.9124 18.8787 39.3469 19.2438C38.774 19.6003 38.3276 20.1181 37.9928 20.7718C37.6579 21.417 37.4868 22.181 37.4868 23.0299C37.4868 23.8788 37.6579 24.6428 37.9928 25.288C38.3276 25.9416 38.7815 26.4595 39.3469 26.816C39.9198 27.1726 40.5523 27.3593 41.2442 27.3593C41.9362 27.3593 42.5761 27.1811 43.1416 26.816C43.7145 26.4595 44.1609 25.9416 44.4957 25.288C44.8305 24.6343 45.0017 23.8703 45.0017 23.0299C45.0017 22.1895 44.8305 21.417 44.4957 20.7718C44.1609 20.1181 43.7145 19.6003 43.1416 19.2438ZM43.6922 23.0299C43.6922 24.0741 43.4689 24.923 43.0225 25.5257C42.5835 26.1369 41.9883 26.451 41.2442 26.451C40.5002 26.451 39.905 26.1369 39.466 25.5257C39.0195 24.9145 38.7963 24.0656 38.7963 23.0299C38.7963 21.9942 39.0195 21.1368 39.466 20.5341C39.905 19.9229 40.5002 19.6088 41.2442 19.6088C41.9883 19.6088 42.5835 19.9229 43.0225 20.5341C43.4689 21.1368 43.6922 21.9857 43.6922 23.0299Z" fill="#00684A"/>
<path d="M69.4065 19.2438C68.8335 18.8872 68.2011 18.7005 67.5091 18.7005C66.8172 18.7005 66.1773 18.8787 65.6118 19.2438C65.0389 19.6003 64.5925 20.1181 64.2577 20.7718C63.9228 21.4255 63.7517 22.181 63.7517 23.0299C63.7517 23.8788 63.9228 24.6428 64.2577 25.288C64.5925 25.9332 65.0463 26.4595 65.6118 26.816C66.1847 27.1726 66.8172 27.3593 67.5091 27.3593C68.2011 27.3593 68.841 27.1811 69.4065 26.816C69.9794 26.4595 70.4258 25.9416 70.7606 25.288C71.0954 24.6343 71.2666 23.8788 71.2666 23.0299C71.2666 22.181 71.0954 21.417 70.7606 20.7718C70.4258 20.1266 69.9719 19.6003 69.4065 19.2438ZM69.957 23.0299C69.957 24.0741 69.7338 24.923 69.2874 25.5257C68.8484 26.1369 68.2532 26.451 67.5091 26.451C66.7651 26.451 66.1699 26.1369 65.7309 25.5257C65.2844 24.9145 65.0612 24.0656 65.0612 23.0299C65.0612 21.9773 65.2844 21.1368 65.7309 20.5341C66.1699 19.9229 66.7651 19.6088 67.5091 19.6088C68.2532 19.6088 68.8484 19.9229 69.2874 20.5341C69.7264 21.1368 69.957 21.9857 69.957 23.0299Z" fill="#00684A"/>
<path d="M58.8111 18.7005C58.2159 18.7005 57.6727 18.8448 57.1742 19.1334C56.6831 19.422 56.2962 19.8125 56.0209 20.3134C55.7456 20.8058 55.6043 21.3575 55.6043 21.9518C55.6043 22.4781 55.7084 22.962 55.9242 23.3949C56.1326 23.8109 56.4153 24.1589 56.7724 24.4476L55.7085 26.1029C55.5745 26.3067 55.5596 26.5783 55.6564 26.799C55.7605 27.0282 55.954 27.1641 56.1772 27.1641H56.4823C56.1846 27.3933 55.9465 27.6649 55.7829 27.9875C55.5894 28.3525 55.4927 28.7346 55.4927 29.125C55.4927 29.8551 55.7754 30.4578 56.3334 30.9162C56.884 31.3662 57.6653 31.5954 58.64 31.5954C59.3171 31.5954 59.9718 31.468 60.5596 31.2218C61.1549 30.9757 61.6385 30.6106 62.0031 30.1352C62.3677 29.6599 62.5537 29.0826 62.5537 28.412C62.5537 27.7159 62.3305 27.2235 61.8096 26.7396C61.3632 26.3406 60.6638 26.1284 59.7858 26.1284H56.8022C56.7948 26.1284 56.7873 26.1199 56.7873 26.1199C56.7873 26.1199 56.7799 26.1029 56.7873 26.0944L57.5611 24.906C57.7695 25.0163 57.9629 25.0842 58.134 25.1267C58.3126 25.1691 58.5135 25.1861 58.7367 25.1861C59.3617 25.1861 59.9346 25.0418 60.4257 24.7532C60.9168 24.4645 61.3111 24.0741 61.6013 23.5732C61.884 23.0808 62.0254 22.529 62.0254 21.9433C62.0254 21.3151 61.7575 20.1606 61.0284 19.5748C61.0284 19.5664 61.0358 19.5664 61.0358 19.5664L62.6429 19.7701V18.9297H60.076C59.6668 18.7854 59.2501 18.7005 58.8111 18.7005ZM59.7114 24.0316C59.4287 24.2014 59.1236 24.2948 58.8186 24.2948C58.32 24.2948 57.8811 24.091 57.5016 23.692C57.1296 23.2931 56.9436 22.7073 56.9436 21.9518C56.9436 21.1963 57.1296 20.619 57.5016 20.2115C57.8736 19.8125 58.3126 19.6088 58.8186 19.6088C59.1311 19.6088 59.4287 19.6937 59.7114 19.872C59.9941 20.0417 60.2248 20.3049 60.4108 20.653C60.5894 21.001 60.6861 21.434 60.6861 21.9433C60.6861 22.4611 60.5968 22.8941 60.4108 23.2336C60.2322 23.5987 59.9941 23.8618 59.7114 24.0316ZM57.6876 27.1641H59.7114C60.2694 27.1641 60.6266 27.2914 60.8647 27.5631C61.1028 27.8347 61.2218 28.1997 61.2218 28.6242C61.2218 29.2439 61.006 29.7532 60.5745 30.1352C60.143 30.5173 59.5626 30.7125 58.8409 30.7125C58.2159 30.7125 57.6951 30.5512 57.3081 30.2456C56.9287 29.94 56.7352 29.4731 56.7352 28.8789C56.7352 28.5053 56.8245 28.1573 57.0031 27.8517C57.1891 27.5461 57.4049 27.3254 57.6876 27.1641Z" fill="#00684A"/>
<path d="M91.5267 27.0452C91.3779 26.9519 91.2663 26.816 91.177 26.6632C91.0952 26.4935 91.0505 26.3237 91.0505 26.1284C91.0505 25.9332 91.0952 25.7549 91.177 25.5936C91.2589 25.4238 91.3779 25.305 91.5267 25.2116C91.6755 25.1182 91.8392 25.0673 92.0252 25.0673C92.2112 25.0673 92.3749 25.1182 92.5237 25.2116C92.6725 25.305 92.7842 25.4408 92.8734 25.5936C92.9553 25.7634 92.9999 25.9332 92.9999 26.1284C92.9999 26.3237 92.9553 26.5019 92.8734 26.6632C92.7916 26.833 92.6725 26.9519 92.5237 27.0452C92.3749 27.1386 92.2112 27.1896 92.0252 27.1896C91.8467 27.1896 91.6755 27.1471 91.5267 27.0452ZM92.4419 26.9264C92.5684 26.85 92.6577 26.7311 92.7321 26.6038C92.799 26.4595 92.8362 26.3067 92.8362 26.1284C92.8362 25.9502 92.799 25.7974 92.7321 25.653C92.6651 25.5087 92.5684 25.3984 92.4419 25.3305C92.3154 25.2541 92.1815 25.2116 92.0252 25.2116C91.869 25.2116 91.7351 25.2541 91.6086 25.3305C91.4821 25.4069 91.3928 25.5257 91.3184 25.653C91.2514 25.7974 91.2142 25.9502 91.2142 26.1284C91.2142 26.3067 91.2514 26.4595 91.3184 26.6038C91.3854 26.7481 91.4821 26.8585 91.6086 26.9264C91.7351 27.0028 91.869 27.0452 92.0252 27.0452C92.1815 27.0452 92.3229 27.0028 92.4419 26.9264ZM91.6234 26.6378V26.5614L91.6383 26.5529H91.683C91.6979 26.5529 91.7127 26.5444 91.7202 26.5359C91.7351 26.5189 91.7351 26.5104 91.7351 26.4935V25.7125C91.7351 25.6955 91.7276 25.6785 91.7202 25.67C91.7053 25.653 91.6979 25.653 91.683 25.653H91.6383L91.6234 25.6445V25.5766L91.6383 25.5681H92.0252C92.1368 25.5681 92.2187 25.5936 92.2856 25.653C92.3526 25.7125 92.3824 25.7889 92.3824 25.8907C92.3824 25.9671 92.3601 26.0435 92.308 26.0945C92.2559 26.1539 92.1964 26.1878 92.122 26.1963L92.2112 26.2303L92.3824 26.5359C92.3973 26.5614 92.4121 26.5699 92.4345 26.5699H92.4791L92.4865 26.5783V26.6547L92.4791 26.6632H92.2484L92.2336 26.6547L91.9955 26.2048H91.936V26.5019C91.936 26.5189 91.9434 26.5359 91.9508 26.5444C91.9657 26.5614 91.9732 26.5614 91.988 26.5614H92.0327L92.0476 26.5699V26.6463L92.0327 26.6547H91.6383L91.6234 26.6378ZM92.0029 26.086C92.0624 26.086 92.1145 26.069 92.1443 26.0266C92.174 25.9926 92.1964 25.9332 92.1964 25.8653C92.1964 25.7974 92.1815 25.7464 92.1517 25.704C92.122 25.6615 92.0773 25.6445 92.0252 25.6445H91.9955C91.9806 25.6445 91.9657 25.653 91.9583 25.6615C91.9434 25.6785 91.9434 25.687 91.9434 25.704V26.0775H92.0029V26.086Z" fill="#00684A"/>
</svg>
