<svg width="104" height="40" viewBox="0 0 104 40" fill="none" xmlns="http://www.w3.org/2000/svg">
<rect width="104" height="40" rx="7" fill="#EFEFEF"/>
<g clip-path="url(#clip0_76_225)">
<path d="M64.5168 11.0074H78.2773V13.8575H72.8187V28.8513H70.0891V13.8575H64.5168V11.0074Z" fill="black"/>
<path d="M41.8861 11.0074V13.8575H30.8562V18.4424H39.7264V21.2924H30.8562V26.0012H41.8861V28.8513H28.1269V13.8575H28.1257V11.0074H41.8861Z" fill="black"/>
<path d="M48.7571 11.0149H45.1853L57.9789 28.8587H61.5612L55.1636 19.9429L61.5509 11.0285L57.9789 11.0347L53.3752 17.4507L48.7571 11.0149Z" fill="black"/>
<path d="M52.4224 23.7608L50.6337 21.2651L45.175 28.8723H48.7571L52.4224 23.7608Z" fill="black"/>
<path fill-rule="evenodd" clip-rule="evenodd" d="M28.2225 28.8513L15.4117 11H12V28.8438H14.7293V14.8141L24.7937 28.8513H28.2225Z" fill="black"/>
<path d="M78.8907 28.7423C78.6908 28.7423 78.5208 28.6646 78.3784 28.5092C78.2361 28.3538 78.1657 28.1656 78.1675 27.9428C78.1657 27.726 78.2361 27.5399 78.3784 27.3845C78.5208 27.2291 78.6908 27.1514 78.8907 27.1514C79.083 27.1514 79.2513 27.2291 79.3936 27.3845C79.538 27.5399 79.61 27.726 79.612 27.9428C79.61 28.09 79.5767 28.2249 79.5101 28.3456C79.4417 28.4683 79.3549 28.5644 79.2456 28.6339C79.1384 28.7055 79.0201 28.7423 78.8907 28.7423Z" fill="black"/>
<path d="M83.5491 21.2252H84.7586V26.454C84.7567 26.9346 84.6641 27.3456 84.483 27.6912C84.3 28.0368 84.0465 28.3006 83.7211 28.4867C83.3975 28.6707 83.0183 28.7648 82.5875 28.7648C82.1935 28.7648 81.8404 28.685 81.526 28.5296C81.2116 28.3742 80.9619 28.1411 80.7789 27.8343C80.5938 27.5276 80.5032 27.1452 80.5032 26.6872H81.7146C81.7164 26.8876 81.7572 27.0614 81.8347 27.2065C81.9123 27.3517 82.0196 27.4621 82.1566 27.5399C82.2951 27.6176 82.4543 27.6564 82.6336 27.6564C82.8279 27.6564 82.9943 27.6114 83.1292 27.5194C83.2642 27.4294 83.3678 27.2945 83.44 27.1145C83.5102 26.9366 83.5473 26.7158 83.5491 26.454V21.2252Z" fill="black"/>
<path d="M89.7351 23.2701C89.7056 22.9531 89.5761 22.7057 89.3505 22.5299C89.1229 22.3519 88.829 22.264 88.4683 22.264C88.215 22.264 87.9969 22.307 87.8156 22.3908C87.6344 22.4767 87.4938 22.5912 87.3976 22.7364C87.3015 22.8816 87.2534 23.0472 87.2496 23.2333C87.2496 23.3887 87.2829 23.5237 87.3476 23.6362C87.4124 23.7507 87.4992 23.8468 87.6121 23.9245C87.723 24.0042 87.8469 24.0697 87.9821 24.1228C88.1188 24.176 88.2557 24.221 88.3925 24.2578L89.0231 24.4316C89.2765 24.4971 89.5226 24.585 89.7573 24.6975C89.9921 24.8079 90.2049 24.949 90.3915 25.1187C90.5784 25.2884 90.7264 25.4929 90.8355 25.7322C90.9445 25.9714 91.0001 26.2516 91.0001 26.5747C91.0001 27.0102 90.9002 27.3926 90.6985 27.7239C90.497 28.0531 90.2067 28.3108 89.8257 28.4969C89.4466 28.681 88.988 28.775 88.448 28.775C87.9265 28.775 87.4716 28.685 87.0888 28.5051C86.7042 28.3272 86.4045 28.0654 86.1881 27.7219C85.9718 27.3783 85.8553 26.9591 85.8386 26.4663H87.0371C87.0537 26.7239 87.1277 26.9387 87.2534 27.1125C87.3809 27.2843 87.5474 27.4111 87.7509 27.4969C87.9562 27.5808 88.1854 27.6237 88.4388 27.6237C88.7033 27.6237 88.9363 27.5787 89.1378 27.4908C89.3375 27.4029 89.4947 27.2802 89.6076 27.1207C89.7223 26.9632 89.7796 26.7771 89.7814 26.5645C89.7796 26.3702 89.7277 26.2086 89.6278 26.0818C89.5262 25.9551 89.3856 25.8487 89.2062 25.7629C89.0251 25.677 88.8142 25.5993 88.5737 25.5318L87.8082 25.315C87.2552 25.1576 86.8169 24.9183 86.4969 24.5973C86.1753 24.2762 86.0161 23.8509 86.0161 23.3172C86.0161 22.8796 86.1233 22.4951 86.3399 22.1659C86.5542 21.8367 86.8484 21.581 87.2201 21.399C87.5937 21.215 88.0153 21.125 88.4849 21.125C88.9621 21.125 89.38 21.215 89.7407 21.399C90.1012 21.581 90.3843 21.8346 90.5895 22.1577C90.7948 22.4808 90.902 22.8509 90.9077 23.2701H89.7351Z" fill="black"/>
</g>
<defs>
<clipPath id="clip0_76_225">
<rect width="79" height="18" fill="white" transform="translate(12 11)"/>
</clipPath>
</defs>
</svg>
