<svg width="104" height="40" viewBox="0 0 104 40" fill="none" xmlns="http://www.w3.org/2000/svg">
<rect width="104" height="40" rx="7" fill="#EFEFEF"/>
<path fill-rule="evenodd" clip-rule="evenodd" d="M31.2371 20.8748C31.2371 20.6132 31.0815 20.3729 30.8266 20.2428L24.0285 16.7778C23.9137 16.718 23.7852 16.6868 23.6548 16.6825H23.5845C23.4542 16.6868 23.3257 16.718 23.209 16.7778L16.4112 20.2428C16.1579 20.3736 16 20.6139 16 20.8755L16.0149 30.2085C16.0149 30.3379 16.0904 30.4588 16.2188 30.5228C16.3439 30.591 16.5012 30.591 16.6264 30.5228L20.6678 28.4725C20.923 28.338 21.0787 28.1002 21.0787 27.8412V23.4811C21.0787 23.2209 21.2344 22.9806 21.4887 22.8512L23.2093 21.9733C23.3371 21.9079 23.4773 21.8755 23.6202 21.8755C23.7608 21.8755 23.9043 21.9076 24.0285 21.9732L25.7482 22.8508C26.0028 22.9801 26.1591 23.2204 26.1591 23.4806V27.8405C26.1591 28.0992 26.3169 28.3381 26.5708 28.4718L30.6096 30.5206C30.7364 30.5875 30.8942 30.5875 31.0205 30.5206C31.145 30.4567 31.224 30.3358 31.224 30.2064L31.2371 20.8748ZM63.3158 25.7341C63.3158 25.7991 63.2768 25.8592 63.2131 25.8914L60.8781 27.0837C60.8147 27.116 60.7364 27.116 60.6732 27.0837L58.3379 25.8914C58.2737 25.8591 58.2352 25.799 58.2352 25.7341V23.346C58.2352 23.2809 58.2737 23.2209 58.3363 23.1882L60.67 21.9938C60.7342 21.9611 60.8128 21.9611 60.877 21.9938L63.2123 23.1882C63.2765 23.2209 63.315 23.2809 63.315 23.346L63.3158 25.7341ZM63.9465 8.04604C63.8191 7.98319 63.6641 7.9849 63.5382 8.04988C63.4131 8.11528 63.3357 8.23472 63.3357 8.3641V17.6061C63.3357 17.6971 63.2811 17.781 63.1922 17.8265C63.1039 17.872 62.994 17.872 62.9049 17.8265L61.202 16.9576C60.9484 16.8277 60.6361 16.8277 60.3815 16.9576L53.5812 20.4345C53.3271 20.5639 53.1703 20.8041 53.1703 21.0629V28.0186C53.1703 28.2788 53.3271 28.5177 53.5812 28.6485L60.3815 32.1278C60.6355 32.2571 60.9481 32.2571 61.2028 32.1278L68.0032 28.6471C68.2568 28.5163 68.414 28.2774 68.414 28.0172V10.682C68.414 10.4181 68.2519 10.1754 67.9919 10.0464L63.9465 8.04604ZM86.5919 23.2831C86.8445 23.1532 87 22.9132 87 22.6544V20.9687C87 20.7093 86.8443 20.47 86.5912 20.3395L79.8342 16.8645C79.579 16.7337 79.266 16.7337 79.0108 16.8645L72.2121 20.3409C71.9569 20.4717 71.8012 20.7106 71.8012 20.9708V27.9236C71.8012 28.1852 71.9601 28.427 72.2153 28.5564L78.9707 31.9674C79.2195 32.0939 79.5244 32.0953 79.7764 31.9716L83.8627 29.9597C83.9911 29.8957 84.073 29.7749 84.073 29.6441C84.073 29.5133 83.9943 29.391 83.8659 29.327L77.0255 25.8492C76.8971 25.7852 76.8184 25.6643 76.8184 25.5349V23.3538C76.8184 23.2236 76.8955 23.1036 77.0239 23.0387L79.1521 21.951C79.2789 21.8856 79.4346 21.8856 79.5613 21.951L81.6912 23.0387C81.818 23.1027 81.8966 23.2236 81.8966 23.353V25.0677C81.8966 25.1971 81.9753 25.3179 82.1021 25.3834C82.2288 25.4473 82.3861 25.4473 82.5129 25.3819L86.5919 23.2831Z" fill="#333333"/>
<path fill-rule="evenodd" clip-rule="evenodd" d="M79.323 22.9578C79.3712 22.9327 79.4315 22.9327 79.4803 22.9578L80.7852 23.6247C80.834 23.6497 80.8638 23.6958 80.8638 23.7455V25.0807C80.8638 25.1304 80.834 25.1765 80.7852 25.2015L79.4803 25.8684C79.4315 25.8935 79.3712 25.8935 79.323 25.8684L78.019 25.2015C77.9692 25.1765 77.9387 25.1304 77.9387 25.0807V23.7455C77.9387 23.6958 77.9676 23.6497 78.0174 23.6247L79.323 22.9578Z" fill="#689F63"/>
<mask id="mask0_76_134" style="mask-type:luminance" maskUnits="userSpaceOnUse" x="34" y="16" width="16" height="17">
<path d="M41.7962 16.8992L35.0344 20.3567C34.7811 20.4861 34.6257 20.725 34.6257 20.9832V27.903C34.6257 28.1614 34.7811 28.4001 35.0344 28.5295L41.7967 31.9897C42.0495 32.1187 42.3611 32.1187 42.6136 31.9897L49.3748 28.5295C49.6268 28.4001 49.7825 28.1612 49.7825 27.903V20.9832C49.7825 20.725 49.6268 20.4861 49.3732 20.3567L42.613 16.8992C42.4862 16.8348 42.3449 16.8025 42.2037 16.8025C42.0625 16.8025 41.9212 16.8348 41.7944 16.8992" fill="white"/>
</mask>
<g mask="url(#mask0_76_134)">
<path d="M56.6155 19.7696L37.5618 11.4959L27.7922 29.1516L46.8454 37.4257L56.6155 19.7696Z" fill="url(#paint0_linear_76_134)"/>
</g>
<mask id="mask1_76_134" style="mask-type:luminance" maskUnits="userSpaceOnUse" x="34" y="16" width="16" height="17">
<path d="M34.7932 28.3424C34.8579 28.4168 34.9388 28.4812 35.034 28.5295L40.8344 31.4976L41.8006 31.9896C41.9451 32.0635 42.1097 32.0948 42.2715 32.0841C42.3254 32.0803 42.3794 32.0713 42.432 32.0581L49.5636 20.4899C49.5091 20.4373 49.4452 20.3933 49.3736 20.3563L44.9461 18.0913L42.6057 16.8984C42.5392 16.8642 42.4672 16.8401 42.3938 16.823L34.7932 28.3424Z" fill="white"/>
</mask>
<g mask="url(#mask1_76_134)">
<path d="M26.5552 22.2168L40.009 38.3481L57.802 26.7023L44.3473 10.5714L26.5552 22.2168Z" fill="url(#paint1_linear_76_134)"/>
</g>
<mask id="mask2_76_134" style="mask-type:luminance" maskUnits="userSpaceOnUse" x="35" y="16" width="15" height="17">
<path d="M42.1229 16.8065C42.0094 16.8165 41.8985 16.8477 41.7963 16.8992L35.0537 20.3468L42.3243 32.0784C42.4254 32.0656 42.5249 32.0358 42.6148 31.9897L49.3767 28.5295C49.5853 28.4223 49.7281 28.2409 49.7715 28.0353L42.3596 16.8183C42.3051 16.8088 42.2505 16.8038 42.1943 16.8038C42.1718 16.8038 42.1494 16.8048 42.1269 16.8066" fill="white"/>
</mask>
<g mask="url(#mask2_76_134)">
<path d="M35.0535 16.8038V32.0788H49.7685V16.8038H35.0535Z" fill="url(#paint2_linear_76_134)"/>
</g>
<defs>
<linearGradient id="paint0_linear_76_134" x1="47.0829" y1="15.6197" x2="39.0827" y2="34.0423" gradientUnits="userSpaceOnUse">
<stop offset="0.3" stop-color="#3E863D"/>
<stop offset="0.5" stop-color="#55934F"/>
<stop offset="0.8" stop-color="#5AAD45"/>
</linearGradient>
<linearGradient id="paint1_linear_76_134" x1="33.3627" y1="30.3749" x2="49.5854" y2="16.8443" gradientUnits="userSpaceOnUse">
<stop offset="0.57" stop-color="#3E863D"/>
<stop offset="0.72" stop-color="#619857"/>
<stop offset="1" stop-color="#76AC64"/>
</linearGradient>
<linearGradient id="paint2_linear_76_134" x1="35.0584" y1="24.4417" x2="49.7713" y2="24.4417" gradientUnits="userSpaceOnUse">
<stop offset="0.16" stop-color="#6BBF47"/>
<stop offset="0.38" stop-color="#79B461"/>
<stop offset="0.47" stop-color="#75AC64"/>
<stop offset="0.7" stop-color="#659E5A"/>
<stop offset="0.9" stop-color="#3E863D"/>
</linearGradient>
</defs>
</svg>
