<svg width="104" height="40" viewBox="0 0 104 40" fill="none" xmlns="http://www.w3.org/2000/svg">
<rect width="104" height="40" rx="7" fill="#EFEFEF"/>
<g clip-path="url(#clip0_76_203)">
<path d="M41.2419 9.97812L27.7787 31.9671C27.5007 32.4211 26.7865 32.4238 26.5044 31.972L12.7742 9.98024C12.4668 9.48791 12.9277 8.89156 13.5385 8.99128L27.0162 11.1916C27.1022 11.2057 27.1902 11.2055 27.2762 11.1912L40.472 8.99444C41.0808 8.89309 41.5439 9.48482 41.2419 9.97812Z" fill="url(#paint0_linear_76_203)"/>
<path d="M33.4366 6.10521L23.4734 7.88833C23.3096 7.91764 23.1884 8.04439 23.1785 8.1965L22.5656 17.6508C22.5512 17.8734 22.7751 18.0463 23.013 17.9961L25.7869 17.4114C26.0465 17.3568 26.281 17.5655 26.2276 17.8039L25.4035 21.4899C25.3481 21.738 25.6031 21.9501 25.8683 21.8765L27.5816 21.4011C27.8472 21.3274 28.1024 21.5402 28.0462 21.7884L26.7366 27.5783C26.6546 27.9404 27.182 28.1379 27.402 27.8274L27.5489 27.62L35.6675 12.8216C35.8034 12.5739 35.569 12.2913 35.271 12.3438L32.4158 12.8472C32.1475 12.8944 31.9192 12.6662 31.9949 12.4264L33.8585 6.52575C33.9343 6.28557 33.7052 6.05714 33.4366 6.10521Z" fill="url(#paint1_linear_76_203)"/>
</g>
<path d="M46.3665 19.8182L49.0163 27.8324H49.1207L51.7656 19.8182H53.794L50.2045 30H47.9276L44.343 19.8182H46.3665ZM55.0556 30V22.3636H56.8553V30H55.0556ZM55.9604 21.2798C55.6754 21.2798 55.4301 21.1854 55.2246 20.9964C55.0191 20.8042 54.9164 20.5739 54.9164 20.3054C54.9164 20.0336 55.0191 19.8033 55.2246 19.6143C55.4301 19.4221 55.6754 19.326 55.9604 19.326C56.2488 19.326 56.494 19.4221 56.6962 19.6143C56.9017 19.8033 57.0044 20.0336 57.0044 20.3054C57.0044 20.5739 56.9017 20.8042 56.6962 20.9964C56.494 21.1854 56.2488 21.2798 55.9604 21.2798ZM62.5192 22.3636V23.7557H58.1293V22.3636H62.5192ZM59.2131 20.5341H61.0128V27.7031C61.0128 27.9451 61.0492 28.1307 61.1222 28.2599C61.1984 28.3859 61.2978 28.4721 61.4205 28.5185C61.5431 28.5649 61.679 28.5881 61.8281 28.5881C61.9408 28.5881 62.0436 28.5798 62.1364 28.5632C62.2325 28.5466 62.3054 28.5317 62.3551 28.5185L62.6584 29.9254C62.5623 29.9586 62.4247 29.995 62.2457 30.0348C62.0701 30.0746 61.8546 30.0978 61.5994 30.1044C61.1487 30.1177 60.7427 30.0497 60.3814 29.9006C60.0201 29.7481 59.7334 29.5128 59.5213 29.1946C59.3125 28.8764 59.2098 28.4787 59.2131 28.0014V20.5341ZM67.323 30.1491C66.5574 30.1491 65.8961 29.9901 65.3393 29.6719C64.7858 29.3504 64.3599 28.8963 64.0616 28.3097C63.7633 27.7197 63.6142 27.0253 63.6142 26.2266C63.6142 25.4411 63.7633 24.7517 64.0616 24.1584C64.3632 23.5618 64.7842 23.0978 65.3244 22.7663C65.8646 22.4316 66.4993 22.2642 67.2285 22.2642C67.6992 22.2642 68.1433 22.3404 68.5609 22.4929C68.9818 22.642 69.353 22.8741 69.6745 23.1889C69.9993 23.5038 70.2546 23.9048 70.4402 24.392C70.6258 24.8759 70.7186 25.4527 70.7186 26.1222V26.674H64.4593V25.4609H68.9934C68.9901 25.1162 68.9155 24.8097 68.7697 24.5412C68.6239 24.2694 68.42 24.0556 68.1582 23.8999C67.8997 23.7441 67.5981 23.6662 67.2534 23.6662C66.8855 23.6662 66.5623 23.7557 66.2839 23.9347C66.0055 24.1103 65.7884 24.3423 65.6326 24.6307C65.4802 24.9157 65.4023 25.2289 65.399 25.5703V26.6293C65.399 27.0734 65.4802 27.4545 65.6426 27.7727C65.805 28.0876 66.032 28.3295 66.3237 28.4986C66.6154 28.6643 66.9567 28.7472 67.3478 28.7472C67.6097 28.7472 67.8467 28.7107 68.0588 28.6378C68.2709 28.5616 68.4548 28.4505 68.6106 28.3047C68.7664 28.1589 68.8841 27.9782 68.9636 27.7628L70.644 27.9517C70.5379 28.3958 70.3358 28.7836 70.0375 29.1151C69.7425 29.4432 69.3646 29.6984 68.9039 29.8807C68.4432 30.0597 67.9163 30.1491 67.323 30.1491Z" fill="#3A404C"/>
<defs>
<linearGradient id="paint0_linear_76_203" x1="12.4389" y1="8.20543" x2="27.2825" y2="30.2763" gradientUnits="userSpaceOnUse">
<stop stop-color="#41D1FF"/>
<stop offset="1" stop-color="#BD34FE"/>
</linearGradient>
<linearGradient id="paint1_linear_76_203" x1="26.2429" y1="6.58932" x2="28.7803" y2="25.6467" gradientUnits="userSpaceOnUse">
<stop stop-color="#FFEA83"/>
<stop offset="0.0833333" stop-color="#FFDD35"/>
<stop offset="1" stop-color="#FFA800"/>
</linearGradient>
<clipPath id="clip0_76_203">
<rect width="30" height="27" fill="white" transform="translate(12 6)"/>
</clipPath>
</defs>
</svg>
