<svg width="104" height="40" viewBox="0 0 104 40" fill="none" xmlns="http://www.w3.org/2000/svg">
<rect width="104" height="40" rx="7" fill="#EFEFEF"/>
<path fill-rule="evenodd" clip-rule="evenodd" d="M34.4811 26.3799H32.7686V30.2514C32.7686 31.2905 33.3537 31.2737 34.4811 31.2067V32.7654C32.1835 33.0838 31.2701 32.3464 31.2701 30.2514V26.3799H30V24.7039H31.2701V22.5419L32.7686 22.0223V24.7039H34.4811V26.3799ZM41.0173 24.7207H42.5015V32.7821H41.0173V31.6257C40.4893 32.4804 39.6758 33 38.6055 33C36.7217 33 35.1662 31.1397 35.1662 28.7598C35.1662 26.3631 36.7217 24.5196 38.6055 24.5196C39.6758 24.5196 40.5036 25.0391 41.0173 25.8771V24.7207ZM38.8338 31.324C40.0754 31.324 41.0173 30.2346 41.0173 28.743C41.0173 27.2346 40.0754 26.162 38.8338 26.162C37.5923 26.162 36.6504 27.2514 36.6504 28.743C36.6504 30.2346 37.5923 31.324 38.8338 31.324ZM44.9847 23.4972C44.4567 23.4972 44.0285 22.9777 44.0285 22.3911C44.0285 21.7709 44.4567 21.2849 44.9847 21.2849C45.5127 21.2849 45.9409 21.7877 45.9409 22.3911C45.9409 22.9944 45.5127 23.4972 44.9847 23.4972ZM44.2426 32.7654V24.7207H45.7268V32.7821H44.2426V32.7654ZM47.4536 32.7654V21H48.9378V32.7654H47.4536ZM58.6279 24.7207H60.1978L58.0285 32.7821H56.5729L55.1315 27.352L53.6758 32.7821H52.2059L50.0367 24.7207H51.6065L52.948 30.2849L54.4037 24.7207H55.8308L57.2722 30.2849L58.6279 24.7207ZM62.053 23.4972C61.525 23.4972 61.0968 22.9777 61.0968 22.3911C61.0968 21.7709 61.525 21.2849 62.053 21.2849C62.581 21.2849 63.0092 21.7877 63.0092 22.3911C63.0092 22.9944 62.581 23.4972 62.053 23.4972ZM61.3109 32.7654V24.7207H62.7951V32.7821H61.3109V32.7654ZM68.1611 24.5028C69.7024 24.5028 70.8155 25.7263 70.8155 27.8212V32.7654H69.3313V28.0056C69.3313 26.7821 68.7319 26.1285 67.79 26.1285C66.8053 26.1285 66.0347 26.7989 66.0347 28.4581V32.7821H64.5362V24.7207H66.0347V25.743C66.4628 24.905 67.2192 24.5028 68.1611 24.5028ZM77.8797 21.486H79.3782V32.7654H77.8797V31.6089C77.3517 32.4637 76.5382 32.9832 75.4679 32.9832C73.5984 32.9832 72.0285 31.1229 72.0285 28.743C72.0285 26.3464 73.5841 24.5028 75.4679 24.5028C76.5382 24.5028 77.366 25.0223 77.8797 25.8603V21.486ZM75.6962 31.324C76.9378 31.324 77.8797 30.2346 77.8797 28.743C77.8797 27.2346 76.9378 26.162 75.6962 26.162C74.4546 26.162 73.5127 27.2514 73.5127 28.743C73.5127 30.2346 74.4546 31.324 75.6962 31.324ZM84.3588 32.9832C82.2752 32.9832 80.7054 31.1229 80.7054 28.743C80.7054 26.3464 82.261 24.5028 84.3588 24.5028C85.7146 24.5028 86.8848 25.324 87.4414 26.581L86.157 27.4525C85.8573 26.6983 85.1723 26.2123 84.3445 26.2123C83.1315 26.2123 82.2039 27.2849 82.2039 28.743C82.2039 30.2011 83.1315 31.2737 84.3445 31.2737C85.1723 31.2737 85.843 30.7709 86.1855 30.0335L87.4699 30.8883C86.8848 32.162 85.7146 32.9832 84.3588 32.9832ZM89.9246 26.933C89.9246 28.4078 93.6351 27.5196 93.6351 30.5028C93.6351 32.1117 92.4363 32.9832 90.9378 32.9832C89.5535 32.9832 88.5688 32.2626 88.1264 31.0894L89.4108 30.2179C89.6249 30.9385 90.1814 31.3743 90.9378 31.3743C91.5943 31.3743 92.1081 31.1229 92.1081 30.4693C92.1081 29.0279 88.3976 29.8492 88.3976 26.9497C88.3976 25.4413 89.5107 24.486 90.9236 24.486C92.051 24.486 92.9929 25.1061 93.4781 26.162L92.2222 26.9832C91.9796 26.3464 91.4944 26.0615 90.9236 26.0615C90.3955 26.0782 89.9246 26.3631 89.9246 26.933ZM96.2895 26.933C96.2895 28.4078 100 27.5196 100 30.5028C100 32.1117 98.8012 32.9832 97.3028 32.9832C95.9185 32.9832 94.9337 32.2626 94.4913 31.0894L95.7757 30.2179C95.9898 30.9385 96.5464 31.3743 97.3028 31.3743C97.9592 31.3743 98.473 31.1229 98.473 30.4693C98.473 29.0279 94.7625 29.8492 94.7625 26.9497C94.7625 25.4413 95.8756 24.486 97.2885 24.486C98.4159 24.486 99.3578 25.1061 99.843 26.162L98.5872 26.9832C98.3446 26.3464 97.8593 26.0615 97.2885 26.0615C96.7605 26.0782 96.2895 26.3631 96.2895 26.933Z" fill="black"/>
<path fill-rule="evenodd" clip-rule="evenodd" d="M15.9913 13C12.7971 13 10.8073 15.3305 10.0044 19.9915C11.2087 17.661 12.6051 16.7902 14.2109 17.3537C15.1185 17.6866 15.7818 18.6598 16.4975 19.7098C17.6669 21.4768 19.0284 23.5 21.9956 23.5C25.1898 23.5 27.1971 21.1695 28 16.5085C26.7956 18.839 25.3993 19.7098 23.8109 19.1207C22.9033 18.7878 22.24 17.8146 21.5244 16.7646C20.3375 15.0232 18.976 13 15.9913 13ZM10.0044 23.5C6.79273 23.5 4.80291 25.8305 4 30.4915C5.20436 28.161 6.60073 27.2902 8.20655 27.8537C9.11418 28.1866 9.77745 29.1598 10.4931 30.2098C11.6625 31.9768 13.024 34 15.9913 34C19.1855 34 21.1927 31.6695 21.9956 27.0085C20.7913 29.339 19.3949 30.2098 17.7891 29.6207C16.8815 29.2878 16.2182 28.3146 15.5025 27.2646C14.3331 25.5232 12.9716 23.5 10.0044 23.5Z" fill="#38BDF8"/>
</svg>
