<svg width="104" height="40" viewBox="0 0 104 40" fill="none" xmlns="http://www.w3.org/2000/svg">
<rect width="104" height="40" rx="7" fill="#EFEFEF"/>
<path d="M30 21.5477C30 19.8435 28.1675 18.2284 25.358 17.2268C26.0063 13.8918 25.7182 11.2385 24.4485 10.389C24.1558 10.1897 23.8136 10.0954 23.4399 10.0954V11.2647C23.647 11.2647 23.8136 11.3119 23.9532 11.4011C24.5655 11.8101 24.8312 13.3675 24.6241 15.3706C24.5746 15.8635 24.4935 16.3826 24.3945 16.9122C23.512 16.6605 22.5484 16.4665 21.5354 16.3407C20.9275 15.3706 20.2972 14.4896 19.6624 13.7188C21.1302 12.1299 22.5079 11.2595 23.4444 11.2595V10.0901C22.2063 10.0901 20.5854 11.1179 18.9465 12.9008C17.3076 11.1284 15.6867 10.1111 14.4485 10.1111V11.2804C15.3805 11.2804 16.7628 12.1457 18.2306 13.724C17.6002 14.4949 16.9699 15.3706 16.371 16.3407C15.3535 16.4665 14.39 16.6605 13.5075 16.9175C13.4039 16.3931 13.3274 15.8844 13.2733 15.3968C13.0617 13.3937 13.3229 11.8363 13.9307 11.422C14.0658 11.3276 14.2414 11.2857 14.4485 11.2857V10.1163C14.0703 10.1163 13.7281 10.2107 13.4309 10.41C12.1657 11.2595 11.8821 13.9076 12.5349 17.2321C9.73439 18.2389 7.91089 19.8487 7.91089 21.5477C7.91089 23.2519 9.7434 24.867 12.5529 25.8685C11.9046 29.2035 12.1927 31.8569 13.4624 32.7064C13.7551 32.9056 14.0973 33 14.4755 33C15.7137 33 17.3346 31.9722 18.9735 30.1894C20.6124 31.9617 22.2333 32.979 23.4714 32.979C23.8497 32.979 24.1918 32.8846 24.489 32.6854C25.7542 31.8359 26.0379 29.1878 25.385 25.8633C28.1765 24.8617 30 23.2467 30 21.5477ZM24.1378 18.0501C23.9712 18.7266 23.7641 19.424 23.53 20.1214C23.3454 19.7019 23.1518 19.2824 22.9402 18.8629C22.733 18.4434 22.5124 18.0344 22.2918 17.6359C22.9312 17.746 23.548 17.8823 24.1378 18.0501ZM22.0757 23.6347C21.7245 24.3426 21.3643 25.0138 20.9906 25.6378C20.3197 25.706 19.6398 25.7427 18.9555 25.7427C18.2756 25.7427 17.5957 25.706 16.9293 25.643C16.5556 25.019 16.1909 24.3531 15.8397 23.6504C15.4976 22.9635 15.1869 22.2661 14.9032 21.5634C15.1824 20.8608 15.4976 20.1581 15.8352 19.4712C16.1864 18.7633 16.5466 18.0921 16.9203 17.4681C17.5912 17.3999 18.2711 17.3632 18.9555 17.3632C19.6353 17.3632 20.3152 17.3999 20.9816 17.4628C21.3553 18.0868 21.72 18.7528 22.0712 19.4554C22.4134 20.1424 22.724 20.8398 23.0077 21.5424C22.724 22.2451 22.4134 22.9478 22.0757 23.6347ZM23.53 22.953C23.7731 23.6557 23.9802 24.3583 24.1513 25.04C23.5615 25.2078 22.9402 25.3494 22.2963 25.4595C22.5169 25.0557 22.7375 24.6415 22.9447 24.2167C23.1518 23.7972 23.3454 23.3725 23.53 22.953ZM18.9645 28.5481C18.5457 28.0447 18.127 27.4836 17.7128 26.8701C18.118 26.8911 18.5322 26.9068 18.951 26.9068C19.3742 26.9068 19.7929 26.8963 20.2027 26.8701C19.7974 27.4836 19.3787 28.0447 18.9645 28.5481ZM15.6146 25.4595C14.9753 25.3494 14.3584 25.2131 13.7686 25.0453C13.9352 24.3688 14.1423 23.6714 14.3764 22.974C14.561 23.3935 14.7547 23.813 14.9663 24.2325C15.1779 24.652 15.394 25.061 15.6146 25.4595ZM18.942 14.5473C19.3607 15.0507 19.7794 15.6118 20.1936 16.2253C19.7884 16.2043 19.3742 16.1886 18.9555 16.1886C18.5322 16.1886 18.1135 16.1991 17.7038 16.2253C18.109 15.6118 18.5277 15.0507 18.942 14.5473ZM15.6101 17.6359C15.3895 18.0396 15.1689 18.4539 14.9618 18.8786C14.7547 19.2981 14.561 19.7176 14.3764 20.1371C14.1333 19.4345 13.9262 18.7318 13.7551 18.0501C14.3449 17.8876 14.9663 17.746 15.6101 17.6359ZM11.5354 24.201C9.94151 23.4092 8.91044 22.371 8.91044 21.5477C8.91044 20.7244 9.94151 19.6809 11.5354 18.8944C11.9226 18.7003 12.3458 18.5273 12.7826 18.3647C13.0392 19.3925 13.3769 20.4622 13.7956 21.5582C13.3814 22.6489 13.0482 23.7133 12.7961 24.7359C12.3503 24.5733 11.9271 24.395 11.5354 24.201ZM13.9577 31.6943C13.3454 31.2853 13.0797 29.7279 13.2868 27.7248C13.3364 27.2319 13.4174 26.7128 13.5165 26.1831C14.399 26.4348 15.3625 26.6289 16.3755 26.7547C16.9834 27.7248 17.6137 28.6058 18.2486 29.3766C16.7808 30.9654 15.403 31.8359 14.4665 31.8359C14.2639 31.8307 14.0928 31.7835 13.9577 31.6943ZM24.6376 27.6986C24.8492 29.7017 24.5881 31.2591 23.9802 31.6733C23.8452 31.7677 23.6696 31.8097 23.4624 31.8097C22.5304 31.8097 21.1482 30.9445 19.6804 29.3661C20.3107 28.5953 20.9411 27.7196 21.5399 26.7495C22.5574 26.6236 23.521 26.4296 24.4035 26.1727C24.507 26.7023 24.5881 27.2109 24.6376 27.6986ZM26.371 24.201C25.9838 24.395 25.5606 24.5681 25.1239 24.7306C24.8672 23.7029 24.5295 22.6331 24.1108 21.5372C24.525 20.4465 24.8582 19.382 25.1103 18.3595C25.5561 18.522 25.9793 18.7003 26.3755 18.8944C27.9694 19.6862 29.0005 20.7244 29.0005 21.5477C28.996 22.371 27.9649 23.4145 26.371 24.201Z" fill="#61DAFB"/>
<path d="M18.9509 23.9441C20.0873 23.9441 21.0086 22.8712 21.0086 21.5477C21.0086 20.2242 20.0873 19.1513 18.9509 19.1513C17.8145 19.1513 16.8933 20.2242 16.8933 21.5477C16.8933 22.8712 17.8145 23.9441 18.9509 23.9441Z" fill="#61DAFB"/>
<path d="M37.0043 30V19.8182H40.8224C41.6046 19.8182 42.2609 19.9541 42.7912 20.2259C43.3248 20.4976 43.7275 20.8788 43.9993 21.3693C44.2744 21.8565 44.4119 22.425 44.4119 23.0746C44.4119 23.7275 44.2727 24.2943 43.9943 24.7749C43.7192 25.2521 43.3132 25.6217 42.7763 25.8835C42.2393 26.142 41.5798 26.2713 40.7976 26.2713H38.0781V24.7401H40.549C41.0064 24.7401 41.3809 24.6771 41.6726 24.5511C41.9643 24.4219 42.1797 24.2346 42.3189 23.9893C42.4614 23.7408 42.5327 23.4358 42.5327 23.0746C42.5327 22.7133 42.4614 22.4051 42.3189 22.1499C42.1764 21.8913 41.9593 21.6958 41.6676 21.5632C41.3759 21.4273 40.9998 21.3594 40.5391 21.3594H38.8487V30H37.0043ZM42.2642 25.3864L44.7848 30H42.7266L40.2507 25.3864H42.2642ZM49.3015 30.1491C48.5359 30.1491 47.8746 29.9901 47.3178 29.6719C46.7643 29.3504 46.3384 28.8963 46.0401 28.3097C45.7418 27.7197 45.5927 27.0253 45.5927 26.2266C45.5927 25.4411 45.7418 24.7517 46.0401 24.1584C46.3417 23.5618 46.7627 23.0978 47.3029 22.7663C47.8432 22.4316 48.4779 22.2642 49.207 22.2642C49.6777 22.2642 50.1218 22.3404 50.5394 22.4929C50.9603 22.642 51.3316 22.8741 51.6531 23.1889C51.9779 23.5038 52.2331 23.9048 52.4187 24.392C52.6043 24.8759 52.6971 25.4527 52.6971 26.1222V26.674H46.4379V25.4609H50.9719C50.9686 25.1162 50.8941 24.8097 50.7482 24.5412C50.6024 24.2694 50.3986 24.0556 50.1367 23.8999C49.8782 23.7441 49.5766 23.6662 49.2319 23.6662C48.864 23.6662 48.5408 23.7557 48.2624 23.9347C47.984 24.1103 47.7669 24.3423 47.6112 24.6307C47.4587 24.9157 47.3808 25.2289 47.3775 25.5703V26.6293C47.3775 27.0734 47.4587 27.4545 47.6211 27.7727C47.7835 28.0876 48.0105 28.3295 48.3022 28.4986C48.5939 28.6643 48.9353 28.7472 49.3263 28.7472C49.5882 28.7472 49.8252 28.7107 50.0373 28.6378C50.2494 28.5616 50.4334 28.4505 50.5891 28.3047C50.7449 28.1589 50.8626 27.9782 50.9421 27.7628L52.6225 27.9517C52.5165 28.3958 52.3143 28.7836 52.016 29.1151C51.721 29.4432 51.3432 29.6984 50.8825 29.8807C50.4218 30.0597 49.8948 30.1491 49.3015 30.1491ZM56.4171 30.1541C55.9332 30.1541 55.4973 30.0679 55.1096 29.8956C54.7251 29.7199 54.4202 29.4614 54.1948 29.12C53.9727 28.7786 53.8617 28.3577 53.8617 27.8572C53.8617 27.4264 53.9412 27.0701 54.1003 26.7884C54.2594 26.5066 54.4765 26.2812 54.7516 26.1122C55.0267 25.9432 55.3366 25.8156 55.6813 25.7294C56.0293 25.6399 56.3889 25.5753 56.7601 25.5355C57.2076 25.4891 57.5705 25.4477 57.8489 25.4112C58.1273 25.3714 58.3295 25.3118 58.4554 25.2322C58.5847 25.1494 58.6493 25.0218 58.6493 24.8494V24.8196C58.6493 24.4451 58.5383 24.1551 58.3162 23.9496C58.0942 23.7441 57.7743 23.6413 57.3567 23.6413C56.9159 23.6413 56.5662 23.7375 56.3077 23.9297C56.0525 24.1219 55.8801 24.349 55.7907 24.6108L54.1103 24.3722C54.2428 23.9081 54.4616 23.5204 54.7665 23.2088C55.0714 22.8939 55.4443 22.6586 55.8851 22.5028C56.3259 22.3438 56.8132 22.2642 57.3468 22.2642C57.7147 22.2642 58.0809 22.3073 58.4455 22.3935C58.8101 22.4796 59.1432 22.6222 59.4448 22.821C59.7464 23.0166 59.9883 23.2834 60.1706 23.6214C60.3562 23.9595 60.449 24.3821 60.449 24.8892V30H58.7189V28.951H58.6593C58.5499 29.1631 58.3958 29.362 58.1969 29.5476C58.0014 29.7299 57.7544 29.8774 57.4561 29.9901C57.1612 30.0994 56.8148 30.1541 56.4171 30.1541ZM56.8844 28.8317C57.2457 28.8317 57.5589 28.7604 57.824 28.6179C58.0892 28.4721 58.293 28.2798 58.4355 28.0412C58.5814 27.8026 58.6543 27.5424 58.6543 27.2607V26.3608C58.598 26.4072 58.5018 26.4503 58.3659 26.4901C58.2334 26.5298 58.0842 26.5646 57.9185 26.5945C57.7528 26.6243 57.5887 26.6508 57.4263 26.674C57.2639 26.6972 57.123 26.7171 57.0037 26.7337C56.7353 26.7701 56.495 26.8298 56.2828 26.9126C56.0707 26.9955 55.9034 27.1115 55.7807 27.2607C55.6581 27.4065 55.5968 27.5954 55.5968 27.8274C55.5968 28.1589 55.7177 28.4091 55.9597 28.5781C56.2016 28.7472 56.5099 28.8317 56.8844 28.8317ZM65.5897 30.1491C64.8274 30.1491 64.1728 29.9818 63.6259 29.647C63.0823 29.3123 62.6631 28.8499 62.3681 28.2599C62.0764 27.6667 61.9306 26.9839 61.9306 26.2116C61.9306 25.4361 62.0797 24.7517 62.378 24.1584C62.6763 23.5618 63.0972 23.0978 63.6408 22.7663C64.1877 22.4316 64.834 22.2642 65.5797 22.2642C66.1995 22.2642 66.748 22.3786 67.2253 22.6072C67.7059 22.8326 68.0887 23.1525 68.3738 23.5668C68.6588 23.9777 68.8212 24.4583 68.861 25.0085H67.1408C67.0712 24.6406 66.9055 24.334 66.6436 24.0888C66.3851 23.8402 66.0388 23.7159 65.6046 23.7159C65.2367 23.7159 64.9135 23.8153 64.6351 24.0142C64.3567 24.2098 64.1396 24.4915 63.9838 24.8594C63.8314 25.2273 63.7551 25.6681 63.7551 26.1818C63.7551 26.7022 63.8314 27.1496 63.9838 27.5241C64.1363 27.8954 64.3501 28.1821 64.6252 28.3842C64.9036 28.5831 65.2301 28.6825 65.6046 28.6825C65.8697 28.6825 66.1067 28.6328 66.3155 28.5334C66.5276 28.4306 66.705 28.2831 66.8475 28.0909C66.99 27.8987 67.0878 27.665 67.1408 27.3899H68.861C68.8179 27.9302 68.6588 28.4091 68.3837 28.8267C68.1086 29.241 67.7341 29.5658 67.2601 29.8011C66.7862 30.0331 66.2293 30.1491 65.5897 30.1491ZM74.152 22.3636V23.7557H69.7621V22.3636H74.152ZM70.8459 20.5341H72.6456V27.7031C72.6456 27.9451 72.6821 28.1307 72.755 28.2599C72.8312 28.3859 72.9306 28.4721 73.0533 28.5185C73.1759 28.5649 73.3118 28.5881 73.4609 28.5881C73.5736 28.5881 73.6764 28.5798 73.7692 28.5632C73.8653 28.5466 73.9382 28.5317 73.9879 28.5185L74.2912 29.9254C74.1951 29.9586 74.0575 29.995 73.8786 30.0348C73.7029 30.0746 73.4875 30.0978 73.2322 30.1044C72.7815 30.1177 72.3755 30.0497 72.0142 29.9006C71.6529 29.7481 71.3662 29.5128 71.1541 29.1946C70.9453 28.8764 70.8426 28.4787 70.8459 28.0014V20.5341ZM79.7537 19.8182H81.5833V26.9773C81.58 27.6335 81.4408 28.1986 81.1657 28.6726C80.8906 29.1432 80.5061 29.5062 80.0123 29.7614C79.5217 30.0133 78.95 30.1392 78.2971 30.1392C77.7005 30.1392 77.1635 30.0331 76.6863 29.821C76.2123 29.6056 75.8361 29.2874 75.5577 28.8665C75.2793 28.4455 75.1401 27.9219 75.1401 27.2955H76.9746C76.9779 27.5705 77.0376 27.8075 77.1536 28.0064C77.2729 28.2053 77.437 28.3577 77.6458 28.4638C77.8546 28.5698 78.0949 28.6229 78.3667 28.6229C78.6616 28.6229 78.9119 28.5616 79.1174 28.4389C79.3229 28.313 79.4786 28.1274 79.5847 27.8821C79.6941 27.6368 79.7504 27.3352 79.7537 26.9773V19.8182ZM89.1177 22.6172C89.0713 22.183 88.8758 21.8449 88.5311 21.603C88.1897 21.361 87.7456 21.2401 87.1987 21.2401C86.8142 21.2401 86.4844 21.2981 86.2093 21.4141C85.9342 21.5301 85.7238 21.6875 85.5779 21.8864C85.4321 22.0852 85.3575 22.3123 85.3542 22.5675C85.3542 22.7796 85.4023 22.9635 85.4984 23.1193C85.5978 23.2751 85.7321 23.4077 85.9011 23.517C86.0701 23.6231 86.2574 23.7126 86.4629 23.7855C86.6684 23.8584 86.8755 23.9197 87.0843 23.9695L88.0389 24.2081C88.4234 24.2976 88.7929 24.4186 89.1475 24.571C89.5055 24.7235 89.8253 24.9157 90.1071 25.1477C90.3921 25.3797 90.6175 25.6598 90.7832 25.9879C90.9489 26.3161 91.0318 26.7005 91.0318 27.1413C91.0318 27.7379 90.8793 28.2633 90.5744 28.7173C90.2695 29.1681 89.8287 29.5211 89.252 29.7763C88.6786 30.0282 87.9842 30.1541 87.1689 30.1541C86.3767 30.1541 85.689 30.0315 85.1056 29.7862C84.5256 29.541 84.0716 29.183 83.7434 28.7124C83.4186 28.2417 83.243 27.6683 83.2164 26.9922H85.0311C85.0576 27.3468 85.167 27.6418 85.3592 27.8771C85.5514 28.1125 85.8017 28.2881 86.1099 28.4041C86.4215 28.5201 86.7695 28.5781 87.1539 28.5781C87.555 28.5781 87.9063 28.5185 88.2079 28.3991C88.5128 28.2765 88.7515 28.1075 88.9238 27.892C89.0962 27.6733 89.184 27.4181 89.1873 27.1264C89.184 26.8613 89.1061 26.6425 88.9537 26.4702C88.8012 26.2945 88.5874 26.1487 88.3123 26.0327C88.0405 25.9134 87.7224 25.8073 87.3578 25.7145L86.1994 25.4162C85.3609 25.2008 84.698 24.8743 84.2108 24.4368C83.7269 23.996 83.4849 23.411 83.4849 22.6818C83.4849 22.0819 83.6473 21.5566 83.9721 21.1058C84.3002 20.6551 84.746 20.3054 85.3095 20.0568C85.8729 19.8049 86.5109 19.679 87.2235 19.679C87.9461 19.679 88.5791 19.8049 89.1227 20.0568C89.6696 20.3054 90.0988 20.6518 90.4103 21.0959C90.7219 21.5367 90.8826 22.0438 90.8926 22.6172H89.1177Z" fill="#3A404C"/>
</svg>
